<group>
ampeg_attack=0.100000
ampeg_release=0.500000

<region>
sample=Harmonica-Hohner-Special20-F/Sustains/Accented/Hohner-Special20-F_Accented_F3.wav
pitch_keycenter=53
lokey=53.0
hikey=55.0
volume=-0.416640

<region>
sample=Harmonica-Hohner-Special20-F/Sustains/Accented/Hohner-Special20-F_Accented_A3.wav
pitch_keycenter=57
lokey=56.0
hikey=58.0
volume=0.015732

<region>
sample=Harmonica-Hohner-Special20-F/Sustains/Accented/Hohner-Special20-F_Accented_C4.wav
pitch_keycenter=60
lokey=59.0
hikey=62.0
volume=1.354124

<region>
sample=Harmonica-Hohner-Special20-F/Sustains/Accented/Hohner-Special20-F_Accented_F4.wav
pitch_keycenter=65
lokey=63.0
hikey=67.0
volume=-0.840669

<region>
sample=Harmonica-Hohner-Special20-F/Sustains/Accented/Hohner-Special20-F_Accented_A4.wav
pitch_keycenter=69
lokey=68.0
hikey=70.0
volume=1.674940

<region>
sample=Harmonica-Hohner-Special20-F/Sustains/Accented/Hohner-Special20-F_Accented_C5.wav
pitch_keycenter=72
lokey=71.0
hikey=74.0
tune=-1
volume=3.024193

<region>
sample=Harmonica-Hohner-Special20-F/Sustains/Accented/Hohner-Special20-F_Accented_F5.wav
pitch_keycenter=77
lokey=75.0
hikey=79.0
volume=-2.196459

<region>
sample=Harmonica-Hohner-Special20-F/Sustains/Accented/Hohner-Special20-F_Accented_A5.wav
pitch_keycenter=81
lokey=80.0
hikey=82.0
volume=6.000000

<region>
sample=Harmonica-Hohner-Special20-F/Sustains/Accented/Hohner-Special20-F_Accented_C6.wav
pitch_keycenter=84
lokey=83.0
hikey=86.0
tune=-2
volume=-1.236033

<region>
sample=Harmonica-Hohner-Special20-F/Sustains/Accented/Hohner-Special20-F_Accented_F6.wav
pitch_keycenter=89
lokey=87.0
hikey=90.0
volume=-4.191128

